# xmcd
#
# Track frame offsets: 
#        150
#        26137
#        49690
#        70790
#        89695
#        110020
#        139450
#        155425
#        167177
#        183380
#        205372
#        227152
#        245865
#        264912
#        283850
#        300207
#        315877
#        326480
#
# Disc length: 4577 seconds
#
# Revision: 3
# Processed by: cddbd v1.5.2PL0 Copyright (c) Steve Scherf et al.
# Submitted via: ExactAudioCopy v1.0b3
#
DISCID=0611df12
DTITLE=Various Artist - America's Rhythm and Blues Hall Of Fame
DYEAR=1993
DGENRE=Soul
TTITLE0=Lee Fields - Meet Me Tonight
TTITLE1=Robert "the Duke" Tillman) - Thinking of You
TTITLE2=Roy C - Rock Me All Night Long
TTITLE3=Willie Clayton - Careless With Your Love
TTITLE4=Frank-O - Strugglin' Lady
TTITLE5=Nolan Struck - Girl I See You Sitting There
TTITLE6=Cadillac George Harris - When Things Go Wrong It Hurts Me Too
TTITLE7=Charles Brown - I Wanna Go Home
TTITLE8=Sunny Ridell - Keep What I Need
TTITLE9=Lee Fields - A Man Got To Do What A Man Got To Do
TTITLE10=Robert "The Duke" Tillman - L.O.V.E.
TTITLE11=Roy C - 634-5789
TTITLE12=Willie Clayton - Can I Change My Mind
TTITLE13=Frank-o - Good Morning Blues
TTITLE14=Noland Struck - Getting Married
TTITLE15=Cadillac George Harris - Pouring Water On A Dy\\rowing Man
TTITLE16=Charles Brown - Educated Fool
TTITLE17=Sunny Ridell - Come Into My World
EXTD=
EXTT0=
EXTT1=
EXTT2=
EXTT3=
EXTT4=
EXTT5=
EXTT6=
EXTT7=
EXTT8=
EXTT9=
EXTT10=
EXTT11=
EXTT12=
EXTT13=
EXTT14=
EXTT15=
EXTT16=
EXTT17=
PLAYORDER=
